HIERARCHY
ROOT Hips
{
  OFFSET 53.8522 58.6283 -14.0141
  CHANNELS 6 Xposition Yposition Zposition Zrotation Xrotation Yrotation
  JOINT spine
  {
    OFFSET 0 7.4756 0.429885
    CHANNELS 3 Zrotation Xrotation Yrotation
    JOINT spine1
    {
      OFFSET 0 9.92301 0
      CHANNELS 3 Zrotation Xrotation Yrotation
      JOINT spine2
      {
        OFFSET 0 9.50804 0
        CHANNELS 3 Zrotation Xrotation Yrotation
        JOINT Neck
        {
          OFFSET 0 24.4111 1.16384
          CHANNELS 3 Zrotation Xrotation Yrotation
          JOINT Head
          {
            OFFSET 0 7.37523 0
            CHANNELS 3 Zrotation Xrotation Yrotation
            End Site
            {
              OFFSET 0 17.8522 -5.88741
            }
          }
        }
        JOINT RightShoulder
        {
          OFFSET -4.00356 10.2679 -0.557468
          CHANNELS 3 Zrotation Xrotation Yrotation
          JOINT RightArm
          {
            OFFSET 0 13.4673 0
            CHANNELS 3 Zrotation Xrotation Yrotation
            JOINT RightArmRoll
            {
              OFFSET 0 6.79858 0
              CHANNELS 3 Zrotation Xrotation Yrotation
              JOINT RightForeArm
              {
                OFFSET 0 19.8018 0
                CHANNELS 3 Zrotation Xrotation Yrotation
                JOINT RightForeArmRoll
                {
                  OFFSET 0 7.62905 0
                  CHANNELS 3 Zrotation Xrotation Yrotation
                  JOINT RightHand
                  {
                    OFFSET 0 15.3098 0
                    CHANNELS 3 Zrotation Xrotation Yrotation
                    End Site
                    {
                      OFFSET 0 0 0
                    }
                  }
                }
              }
            }
          }
        }
        JOINT LeftShoulder
        {
          OFFSET 4.00356 10.2679 -0.557468
          CHANNELS 3 Zrotation Xrotation Yrotation
          JOINT LeftArm
          {
            OFFSET 0 13.4673 0
            CHANNELS 3 Zrotation Xrotation Yrotation
            JOINT LeftArmRoll
            {
              OFFSET 0 6.79858 0
              CHANNELS 3 Zrotation Xrotation Yrotation
              JOINT LeftForeArm
              {
                OFFSET 0 19.8018 0
                CHANNELS 3 Zrotation Xrotation Yrotation
                JOINT LeftForeArmRoll
                {
                  OFFSET 0 7.62905 0
                  CHANNELS 3 Zrotation Xrotation Yrotation
                  JOINT LeftHand
                  {
                    OFFSET 0 15.3098 0
                    CHANNELS 3 Zrotation Xrotation Yrotation
                    End Site
                    {
                      OFFSET 0 0 0
                    }
                  }
                }
              }
            }
          }
        }
      }
    }
  }
  JOINT RightUpLeg
  {
    OFFSET -6.62609 -1.21505 -1.01927
    CHANNELS 3 Zrotation Xrotation Yrotation
    JOINT RightUpLegRoll
    {
      OFFSET 0 17.9517 0
      CHANNELS 3 Zrotation Xrotation Yrotation
      JOINT RightLeg
      {
        OFFSET 0 -22.2304 0
        CHANNELS 3 Zrotation Xrotation Yrotation
        JOINT RightLegRoll
        {
          OFFSET 0 22.3032 0
          CHANNELS 3 Zrotation Xrotation Yrotation
          JOINT RightFoot
          {
            OFFSET 0 18.5636 0
            CHANNELS 3 Zrotation Xrotation Yrotation
            JOINT RightToeBase
            {
              OFFSET 0 15.5183 0
              CHANNELS 3 Zrotation Xrotation Yrotation
              End Site
              {
                OFFSET 0.00657761 7.51539 -0.866262
              }
            }
          }
        }
      }
    }
  }
  JOINT LeftUpLeg
  {
    OFFSET 6.62609 -1.21505 -1.01927
    CHANNELS 3 Zrotation Xrotation Yrotation
    JOINT LeftUpLegRoll
    {
      OFFSET 0 17.9518 0
      CHANNELS 3 Zrotation Xrotation Yrotation
      JOINT LeftLeg
      {
        OFFSET 0 22.2303 0
        CHANNELS 3 Zrotation Xrotation Yrotation
        JOINT LeftLegRoll
        {
          OFFSET 0 22.5093 0
          CHANNELS 3 Zrotation Xrotation Yrotation
          JOINT LeftFoot
          {
            OFFSET 0 18.3575 0
            CHANNELS 3 Zrotation Xrotation Yrotation
            JOINT LeftToeBase
            {
              OFFSET 0 15.5183 0
              CHANNELS 3 Zrotation Xrotation Yrotation
              End Site
              {
                OFFSET -0.029478 7.51538 -0.866263
              }
            }
          }
        }
      }
    }
  }
}
MOTION
Frames: 13
Frame Time: 0.00208333
54.7316 59.2258 -12.4379 -3.64914 -0.0659129 0.624077 -0.0799195 3.06177 -0.734124 -0.108856 10.1272 -1.47244 -0.0911951 11.7721 -1.47415 -0.699757 -13.4663 -1.43132 6.48388 5.8503 -1.13724 66.9571 -4.12675 -3.14496 103.687 31.8368 -11.3772 4.73604e-007 -1.87012e-007 -3.44449e-006 18.5447 16.2178 -2.46968 7.69508e-006 -2.34584e-006 -3.00598 8.02977 -4.9514 0.697645 -65.61 -8.74163 5.55805 -98.272 23.6095 7.35358 -6.75584e-007 2.63043e-006 3.20017e-006 -20.2824 19.0151 3.86324 -6.38172e-006 2.74265e-006 3.00841 -8.03007 -4.95138 -0.697601 -163.532 80.5324 -5.59203 180 7.01258e-015 178.035 -130.802 83.9256 128.658 -1.73508e-006 -1.14918e-006 2.46705 -17.5156 64.8823 17.2076 8.39803 27.7238 -5.43926 -177.709 81.9857 1.54313 4.54188e-006 -4.6773e-006 -1.48301 53.3003 -80.5207 51.1081 3.6371e-006 -3.06056e-006 -2.17046 17.4898 64.4548 -16.9077 -8.15872 25.6292 2.9772 
54.7126 59.2155 -12.4763 -3.62938 -0.214363 0.615797 -0.077084 3.06411 -0.73512 -0.102236 10.1319 -1.47594 -0.0845122 11.7767 -1.47778 -0.81428 -13.2867 -1.43633 6.53912 5.79766 -1.1419 66.8908 -4.13787 -3.14616 103.828 31.8883 -11.3074 4.73604e-007 -1.87012e-007 -3.44449e-006 18.4966 16.0918 -2.4512 7.69508e-006 -2.34584e-006 -3.00598 8.02977 -4.9514 0.697645 -65.6666 -8.70822 5.54068 -98.2642 23.5923 7.24052 -6.75584e-007 2.63043e-006 3.20017e-006 -20.2183 18.9775 3.85099 -6.38172e-006 2.74265e-006 3.00841 -8.03007 -4.95138 -0.697601 -163.625 80.4142 -5.5148 180 7.01258e-015 178.035 -130.816 83.9175 128.679 -1.73508e-006 -1.14918e-006 2.46425 -17.47 64.8562 17.1927 8.39374 27.6964 -5.40448 -177.443 81.867 1.26466 4.54188e-006 -4.6773e-006 -1.48504 53.1183 -80.5079 50.9335 3.6371e-006 -3.06056e-006 -2.16179 17.4358 64.3547 -16.8437 -8.15973 25.6466 2.95489 
54.7019 59.2164 -12.5015 -3.60927 -0.361785 0.606035 -0.0746397 3.06611 -0.736274 -0.0966187 10.1358 -1.47939 -0.0788365 11.7807 -1.48134 -0.924369 -13.108 -1.43894 6.59093 5.75033 -1.14484 66.8296 -4.14802 -3.14719 103.964 31.9394 -11.2381 4.73604e-007 -1.87012e-007 -3.44449e-006 18.4491 15.9671 -2.4329 7.69508e-006 -2.34584e-006 -3.00598 8.02977 -4.9514 0.697645 -65.7198 -8.67764 5.52483 -98.26 23.5749 7.12675 -6.75584e-007 2.63043e-006 3.20017e-006 -20.1529 18.9371 3.83806 -6.38172e-006 2.74265e-006 3.00841 -8.03007 -4.95138 -0.697601 -163.699 80.2963 -5.45759 180 7.01258e-015 178.034 -130.82 83.9093 128.691 -1.73508e-006 -1.14918e-006 2.46184 -17.4293 64.8329 17.1794 8.38843 27.6606 -5.36719 -177.172 81.7478 0.97733 4.54188e-006 -4.6773e-006 -1.48702 52.9324 -80.4957 50.7557 3.6371e-006 -3.06056e-006 -2.15325 17.3841 64.2585 -16.7826 -8.16067 25.6628 2.934 
54.6808 59.1987 -12.5361 -3.5888 -0.508098 0.594549 -0.0726474 3.06776 -0.737599 -0.0921615 10.1391 -1.48275 -0.0743272 11.784 -1.48478 -1.02925 -12.9307 -1.43881 6.63877 5.70922 -1.1458 66.7742 -4.15704 -3.14806 104.094 31.9902 -11.1698 4.73604e-007 -1.87012e-007 -3.44449e-006 18.4023 15.8444 -2.41488 7.69508e-006 -2.34584e-006 -3.00598 8.02977 -4.9514 0.697645 -65.7692 -8.65037 5.51075 -98.2596 23.5575 7.01224 -6.75584e-007 2.63043e-006 3.20017e-006 -20.086 18.8937 3.82439 -6.38172e-006 2.74265e-006 3.00841 -8.03007 -4.95138 -0.697601 -163.751 80.1789 -5.422 180 7.01257e-015 178.032 -130.813 83.9011 128.692 -1.73508e-006 -1.14918e-006 2.45986 -17.3939 64.8127 17.1677 8.38201 27.6149 -5.32769 -176.892 81.6282 0.67895 4.54188e-006 -4.6773e-006 -1.48893 52.7416 -80.4839 50.5739 3.6371e-006 -3.06056e-006 -2.14485 17.335 64.1667 -16.7247 -8.16154 25.6777 2.91481 
54.6729 59.1958 -12.5624 -3.568 -0.653084 0.581653 -0.0711003 3.06889 -0.739127 -0.0888537 10.1413 -1.48604 -0.0709736 11.7862 -1.48813 -1.1283 -12.7528 -1.43599 6.68165 5.67292 -1.14464 66.7257 -4.16506 -3.14888 104.217 32.0409 -11.1023 4.73604e-007 -1.87012e-007 -3.44449e-006 18.3568 15.7223 -2.39683 7.69508e-006 -2.34584e-006 -3.00598 8.02977 -4.9514 0.697645 -65.8135 -8.62593 5.49817 -98.2647 23.5388 6.8974 -6.75584e-007 2.63043e-006 3.20017e-006 -20.0175 18.8475 3.80997 -6.38172e-006 2.74265e-006 3.00841 -8.03007 -4.95138 -0.697601 -163.785 80.062 -5.4056 180 7.01256e-015 178.03 -130.797 83.8929 128.684 -1.73508e-006 -1.14918e-006 2.4584 -17.3652 64.7963 17.158 8.37431 27.5589 -5.28325 -176.606 81.5085 0.372019 4.54188e-006 -4.6773e-006 -1.49081 52.5448 -80.4724 50.3868 3.6371e-006 -3.06056e-006 -2.13645 17.2875 64.0776 -16.669 -8.16236 25.6917 2.8967 
54.6598 59.1876 -12.5933 -3.54691 -0.796673 0.56786 -0.0699226 3.06937 -0.740863 -0.0865047 10.1423 -1.48934 -0.0685839 11.7872 -1.49148 -1.22199 -12.5721 -1.43089 6.71947 5.6393 -1.14159 66.6837 -4.17234 -3.14978 104.334 32.0917 -11.0353 4.73604e-007 -1.87012e-007 -3.44449e-006 18.3126 15.5991 -2.37839 7.69508e-006 -2.34584e-006 -3.00598 8.02977 -4.9514 0.697645 -65.8522 -8.60343 5.48657 -98.2762 23.5174 6.78252 -6.75584e-007 2.63043e-006 3.20017e-006 -19.9478 18.7988 3.79485 -6.38172e-006 2.74265e-006 3.00841 -8.03007 -4.95138 -0.697601 -163.805 79.9455 -5.40391 180 7.01256e-015 178.028 -130.772 83.8846 128.669 -1.73508e-006 -1.14918e-006 2.45748 -17.344 64.7839 17.1507 8.3654 27.4935 -5.23157 -176.319 81.3891 0.0612398 4.54188e-006 -4.6773e-006 -1.49265 52.3421 -80.461 50.1945 3.6371e-006 -3.06056e-006 -2.12794 17.2405 63.9893 -16.6141 -8.16317 25.7055 2.87891 
54.6345 59.1667 -12.621 -3.52551 -0.939012 0.553221 -0.0690725 3.06927 -0.742783 -0.0850032 10.1421 -1.49265 -0.0670461 11.7869 -1.49482 -1.31118 -12.389 -1.42374 6.75301 5.60824 -1.13689 66.6473 -4.17894 -3.15073 104.446 32.1424 -10.9686 4.73604e-007 -1.87012e-007 -3.44449e-006 18.2693 15.4749 -2.35962 7.69508e-006 -2.34584e-006 -3.00598 8.02977 -4.9514 0.697645 -65.8861 -8.58272 5.47588 -98.2932 23.4939 6.66749 -6.75584e-007 2.63043e-006 3.20017e-006 -19.877 18.7476 3.77909 -6.38172e-006 2.74265e-006 3.00841 -8.03007 -4.95138 -0.697601 -163.812 79.8294 -5.41542 180 7.01254e-015 178.026 -130.739 83.8764 128.647 -1.73508e-006 -1.14918e-006 2.45707 -17.3295 64.7752 17.1454 8.35547 27.4198 -5.17354 -176.031 81.2699 -0.252214 4.54188e-006 -4.6773e-006 -1.49448 52.1344 -80.4497 49.9979 3.6371e-006 -3.06056e-006 -2.11938 17.1943 63.9022 -16.5603 -8.16398 25.719 2.8615 
54.6212 59.1595 -12.6514 -3.50381 -1.08025 0.537787 -0.0685085 3.06865 -0.744865 -0.0842379 10.1408 -1.49598 -0.0662481 11.7857 -1.49817 -1.39672 -12.204 -1.41478 6.78307 5.57964 -1.13079 66.6154 -4.18493 -3.15167 104.554 32.1931 -10.9019 4.73604e-007 -1.87012e-007 -3.44449e-006 18.2266 15.3497 -2.34055 7.69508e-006 -2.34584e-006 -3.00598 8.02977 -4.9514 0.697645 -65.9162 -8.56362 5.46604 -98.3147 23.4685 6.55217 -6.75584e-007 2.63043e-006 3.20017e-006 -19.8051 18.6942 3.76273 -6.38172e-006 2.74265e-006 3.00841 -8.03007 -4.95138 -0.697601 -163.807 79.7135 -5.43868 180 7.01253e-015 178.023 -130.7 83.8681 128.618 -1.73508e-006 -1.14918e-006 2.45709 -17.3209 64.7697 17.142 8.34474 27.3389 -5.11008 -175.744 81.1508 -0.56721 4.54188e-006 -4.6773e-006 -1.49628 51.923 -80.4386 49.7982 3.6371e-006 -3.06056e-006 -2.11079 17.1489 63.8165 -16.5077 -8.16477 25.7322 2.84451 
54.6126 59.1789 -12.675 -3.48182 -1.22053 0.521609 -0.0681885 3.0676 -0.747085 -0.0840976 10.1387 -1.49934 -0.0660778 11.7836 -1.50154 -1.47949 -12.0175 -1.40426 6.81045 5.55339 -1.12352 66.587 -4.19036 -3.15258 104.659 32.2435 -10.835 4.73604e-007 -1.87012e-007 -3.44449e-006 18.184 15.2235 -2.32126 7.69508e-006 -2.34584e-006 -3.00598 8.02977 -4.9514 0.697645 -65.9432 -8.54598 5.45696 -98.3398 23.4416 6.43642 -6.75584e-007 2.63043e-006 3.20017e-006 -19.7323 18.6387 3.74584 -6.38172e-006 2.74265e-006 3.00841 -8.03007 -4.95138 -0.697601 -163.793 79.5977 -5.47232 180 7.01252e-015 178.02 -130.654 83.8597 128.584 -1.73508e-006 -1.14918e-006 2.45749 -17.3175 64.767 17.1401 8.33342 27.252 -5.04208 -175.458 81.0314 -0.882653 4.54188e-006 -4.6773e-006 -1.49806 51.7088 -80.4277 49.5961 3.6371e-006 -3.06056e-006 -2.10222 17.1044 63.7324 -16.4563 -8.16554 25.745 2.82801 
54.5764 59.1361 -12.7119 -3.45952 -1.36 0.504738 -0.0680708 3.06618 -0.749421 -0.0844709 10.1359 -1.50274 -0.0664231 11.7808 -1.50494 -1.56033 -11.83 -1.39242 6.83592 5.52936 -1.11535 66.5611 -4.1953 -3.15341 104.763 32.2936 -10.7676 4.73604e-007 -1.87012e-007 -3.44449e-006 18.1413 15.0965 -2.30177 7.69508e-006 -2.34584e-006 -3.00598 8.02977 -4.9514 0.697645 -65.9682 -8.52965 5.44859 -98.3677 23.4136 6.3201 -6.75584e-007 2.63043e-006 3.20017e-006 -19.6588 18.5812 3.72846 -6.38172e-006 2.74265e-006 3.00841 -8.03007 -4.95138 -0.697601 -163.77 79.482 -5.51503 180 7.01251e-015 178.017 -130.603 83.8513 128.544 -1.73508e-006 -1.14918e-006 2.45822 -17.3184 64.7667 17.1395 8.32171 27.1602 -4.97045 -175.175 80.9117 -1.19748 4.54188e-006 -4.6773e-006 -1.49983 51.4929 -80.417 49.3929 3.6371e-006 -3.06056e-006 -2.09372 17.0611 63.6501 -16.4064 -8.16629 25.7574 2.81203 
54.5831 59.1231 -12.7327 -3.43694 -1.4988 0.487227 -0.0681136 3.06445 -0.75185 -0.0852464 10.1324 -1.50619 -0.0671718 11.7773 -1.50838 -1.64009 -11.6418 -1.37949 6.86029 5.50745 -1.10649 66.5366 -4.19982 -3.15412 104.866 32.3433 -10.6994 4.73604e-007 -1.87012e-007 -3.44449e-006 18.0979 14.9686 -2.28216 7.69508e-006 -2.34584e-006 -3.00598 8.02977 -4.9514 0.697645 -65.9919 -8.51445 5.44083 -98.3974 23.3849 6.20308 -6.75584e-007 2.63043e-006 3.20017e-006 -19.5845 18.5218 3.71064 -6.38172e-006 2.74265e-006 3.00841 -8.03007 -4.95138 -0.697601 -163.74 79.3663 -5.56555 180 7.01249e-015 178.014 -130.546 83.8428 128.499 -1.73508e-006 -1.14918e-006 2.45921 -17.323 64.7683 17.1401 8.3098 27.0646 -4.89608 -174.894 80.7916 -1.51068 4.54188e-006 -4.6773e-006 -1.50157 51.2764 -80.4066 49.1893 3.6371e-006 -3.06056e-006 -2.08532 17.0191 63.5699 -16.3581 -8.16701 25.7693 2.79664 
54.5608 59.1132 -12.7639 -3.41406 -1.63709 0.469125 -0.0682751 3.06248 -0.754348 -0.0863128 10.1285 -1.50971 -0.0682115 11.7734 -1.51188 -1.71963 -11.4534 -1.36572 6.88434 5.48754 -1.09722 66.5127 -4.20396 -3.15468 104.969 32.3925 -10.6302 4.73604e-007 -1.87012e-007 -3.44449e-006 18.0537 14.8399 -2.26246 7.69508e-006 -2.34584e-006 -3.00598 8.02977 -4.9514 0.697645 -66.0152 -8.50023 5.43363 -98.428 23.3559 6.08522 -6.75584e-007 2.63043e-006 3.20017e-006 -19.5098 18.4606 3.69244 -6.38172e-006 2.74265e-006 3.00841 -8.03007 -4.95138 -0.697601 -163.703 79.2504 -5.62269 180 7.01248e-015 178.01 -130.484 83.8341 128.45 -1.73508e-006 -1.14918e-006 2.46042 -17.3304 64.7715 17.1415 8.29786 26.9664 -4.81985 -174.618 80.6708 -1.82124 4.54188e-006 -4.6773e-006 -1.50329 51.0603 -80.3966 48.9865 3.6371e-006 -3.06056e-006 -2.07707 16.9783 63.4921 -16.3115 -8.1677 25.7807 2.78187 
54.5492 59.1006 -12.8087 -3.39088 -1.775 0.450484 -0.0685135 3.06036 -0.756894 -0.0875588 10.1243 -1.51329 -0.0694303 11.7692 -1.51545 -1.79978 -11.2653 -1.35133 6.90886 5.46953 -1.08775 66.4881 -4.2078 -3.15505 105.074 32.4411 -10.5597 4.73604e-007 -1.87012e-007 -3.44449e-006 18.0081 14.7104 -2.24273 7.69508e-006 -2.34584e-006 -3.00598 8.02977 -4.9514 0.697645 -66.0391 -8.48683 5.4269 -98.4586 23.3268 5.96638 -6.75584e-007 2.63043e-006 3.20017e-006 -19.4346 18.3978 3.6739 -6.38172e-006 2.74265e-006 3.00841 -8.03007 -4.95138 -0.697601 -163.662 79.1342 -5.68529 180 7.01246e-015 178.007 -130.418 83.8253 128.396 -1.73508e-006 -1.14918e-006 2.46179 -17.3398 64.7757 17.1436 8.28605 26.8667 -4.74265 -174.346 80.5492 -2.12822 4.54188e-006 -4.6773e-006 -1.50499 50.8457 -80.3869 48.7853 3.6371e-006 -3.06056e-006 -2.06901 16.9391 63.417 -16.2667 -8.16835 25.7916 2.7678 
